<svg width="22" height="22" viewBox="0 0 22 22" fill="none" xmlns="http://www.w3.org/2000/svg">
<path d="M8.8 0H13.2C15.5339 0 17.7722 0.950913 19.4225 2.64355C21.0729 4.33619 22 6.63189 22 9.02564C22 11.4194 21.0729 13.7151 19.4225 15.4077C17.7722 17.1004 15.5339 18.0513 13.2 18.0513V22C7.7 19.7436 0 16.359 0 9.02564C0 6.63189 0.92714 4.33619 2.57746 2.64355C4.22778 0.950913 6.46609 0 8.8 0ZM11 15.7949H13.2C14.9504 15.7949 16.6292 15.0817 17.8669 13.8122C19.1046 12.5427 19.8 10.821 19.8 9.02564C19.8 7.23033 19.1046 5.50855 17.8669 4.23907C16.6292 2.9696 14.9504 2.25641 13.2 2.25641H8.8C7.04957 2.25641 5.37084 2.9696 4.1331 4.23907C2.89536 5.50855 2.2 7.23033 2.2 9.02564C2.2 13.0985 4.9082 15.7565 11 18.5928V15.7949Z" fill="#1D1D1D"/>
</svg>
