<svg width="16" height="16" viewBox="0 0 16 16" fill="none" xmlns="http://www.w3.org/2000/svg">
<path d="M9.68317 11.8473L9.21269 13.1895C9.17579 13.291 9.11121 13.374 9.01896 13.4386C8.92671 13.5032 8.82524 13.5354 8.71453 13.5354C8.53003 13.5354 8.38022 13.4592 8.26509 13.3068C8.14996 13.1544 8.12911 12.9862 8.20254 12.802L10.3059 7.23932C10.352 7.13784 10.4212 7.05482 10.5134 6.99024C10.6057 6.92567 10.7072 6.89338 10.8179 6.89338H11.233C11.3437 6.89338 11.4452 6.92567 11.5374 6.99024C11.6297 7.05482 11.6989 7.13784 11.745 7.23932L13.8483 12.8159C13.9221 12.9912 13.9036 13.155 13.7929 13.3074C13.6822 13.4598 13.5346 13.5358 13.3501 13.5354C13.2302 13.5354 13.1265 13.5032 13.0391 13.4386C12.9516 13.374 12.8846 13.2864 12.8382 13.1757L12.3677 11.8473H9.68317ZM6.3483 9.09356L3.94055 11.4875C3.83907 11.5889 3.71232 11.6421 3.56029 11.6469C3.40826 11.6517 3.27671 11.5985 3.16564 11.4875C3.06417 11.386 3.01343 11.2568 3.01343 11.1C3.01343 10.9432 3.06417 10.814 3.16564 10.7126L5.57339 8.30482C5.25051 7.98194 4.95752 7.61293 4.69442 7.19781C4.43132 6.78268 4.18926 6.3122 3.96823 5.78637H5.13059C5.31509 6.14614 5.49959 6.4598 5.68409 6.72733C5.86859 6.99485 6.09 7.26238 6.3483 7.52991C6.65273 7.22548 6.96878 6.79873 7.29645 6.24965C7.62413 5.70057 7.87081 5.17714 8.03649 4.67936H2.44609C2.28926 4.67936 2.15789 4.62622 2.05199 4.51995C1.94609 4.41367 1.89295 4.28231 1.89258 4.12585C1.89221 3.96939 1.94535 3.83803 2.05199 3.73175C2.15863 3.62548 2.29 3.57234 2.44609 3.57234H5.76712V3.01884C5.76712 2.86201 5.82025 2.73065 5.92653 2.62474C6.0328 2.51884 6.16417 2.4657 6.32062 2.46533C6.47708 2.46496 6.60863 2.5181 6.71527 2.62474C6.82192 2.73139 6.87487 2.86275 6.87413 3.01884V3.57234H10.1952C10.352 3.57234 10.4835 3.62548 10.5898 3.73175C10.6961 3.83803 10.749 3.96939 10.7487 4.12585C10.7483 4.28231 10.6952 4.41386 10.5893 4.5205C10.4834 4.62714 10.352 4.68009 10.1952 4.67936H9.1435C8.94977 5.34356 8.65918 6.02622 8.27173 6.72733C7.88428 7.42843 7.50144 7.96349 7.12321 8.33249L8.45162 9.68858L8.03649 10.8233L6.3483 9.09356ZM10.0291 10.8786H12.0217L11.0254 8.05574L10.0291 10.8786Z" fill="#9CA3AF"/>
</svg>
