<svg width="18" height="18" viewBox="0 0 18 18" fill="none" xmlns="http://www.w3.org/2000/svg">
<path fill-rule="evenodd" clip-rule="evenodd" d="M9 4.5C8.06802 4.5 7.3125 3.74448 7.3125 2.8125C7.3125 1.88052 8.06802 1.125 9 1.125C9.93198 1.125 10.6875 1.88052 10.6875 2.8125C10.6875 3.74448 9.93198 4.5 9 4.5ZM9 10.6875C8.06802 10.6875 7.3125 9.93198 7.3125 9C7.3125 8.06802 8.06802 7.3125 9 7.3125C9.93198 7.3125 10.6875 8.06802 10.6875 9C10.6875 9.93198 9.93198 10.6875 9 10.6875ZM7.3125 15.1875C7.3125 16.1194 8.06802 16.875 9 16.875C9.93198 16.875 10.6875 16.1194 10.6875 15.1875C10.6875 14.2556 9.93198 13.5 9 13.5C8.06802 13.5 7.3125 14.2556 7.3125 15.1875Z" fill="#1D1D1D"/>
</svg>
