<svg width="18" height="18" viewBox="0 0 18 18" fill="none" xmlns="http://www.w3.org/2000/svg">
<path fill-rule="evenodd" clip-rule="evenodd" d="M9 16.3125C13.0386 16.3125 16.3125 13.0386 16.3125 9C16.3125 4.96142 13.0386 1.6875 9 1.6875C4.96142 1.6875 1.6875 4.96142 1.6875 9C1.6875 13.0386 4.96142 16.3125 9 16.3125ZM9 18C13.9706 18 18 13.9706 18 9C18 4.02943 13.9706 0 9 0C4.02943 0 0 4.02943 0 9C0 13.9706 4.02943 18 9 18ZM9.70311 3.79688V4.5V4.92188H10.125C11.4453 4.92188 12.5156 5.9922 12.5156 7.3125H11.1094C11.1094 6.76884 10.6687 6.32812 10.125 6.32812H9.70311V8.29688H10.125C11.4453 8.29688 12.5156 9.3672 12.5156 10.6875C12.5156 12.0078 11.4453 13.0781 10.125 13.0781H9.70311V13.5V14.2031H8.29686V13.5V13.0781H7.875C6.5547 13.0781 5.48438 12.0078 5.48438 10.6875H6.89062C6.89062 11.2312 7.33134 11.6719 7.875 11.6719H8.29686V9.70312H7.875C6.5547 9.70312 5.48438 8.6328 5.48438 7.3125C5.48438 5.9922 6.5547 4.92188 7.875 4.92188H8.29686V4.5V3.79688H9.70311ZM8.29686 6.32812H7.875C7.33134 6.32812 6.89062 6.76884 6.89062 7.3125C6.89062 7.85616 7.33134 8.29688 7.875 8.29688H8.29686V6.32812ZM9.70311 9.70312V11.6719H10.125C10.6687 11.6719 11.1094 11.2312 11.1094 10.6875C11.1094 10.1438 10.6687 9.70312 10.125 9.70312H9.70311Z" fill="white"/>
</svg>
