<svg width="186" height="18" viewBox="0 0 186 18" fill="none" xmlns="http://www.w3.org/2000/svg">
<path fill-rule="evenodd" clip-rule="evenodd" d="M15.0624 7.38045L9.99989 2.31795L4.93739 7.38045V15.1873H7.74989V12.3748C7.74989 11.1321 8.75725 10.1247 9.99989 10.1247C11.2425 10.1247 12.2499 11.1321 12.2499 12.3748V15.1873H15.0624V7.38045ZM16.5024 6.434L10.7954 0.726966C10.356 0.287628 9.64372 0.287624 9.20439 0.726966L3.49723 6.43413C3.49708 6.43427 3.49736 6.43399 3.49723 6.43413L1.52826 8.40309L0.931641 8.99971L2.12489 10.193L2.72151 9.59633L3.24989 9.06795V16.031V16.8748H4.09364H7.74989H9.43739H10.5624H12.2499H15.9061H16.7499V16.031V9.06795L17.2783 9.59633L17.8749 10.193L19.0682 8.99971L18.4715 8.40309L16.5024 6.434C16.5026 6.43423 16.5022 6.43378 16.5024 6.434ZM10.5624 12.3748V15.1873H9.43739V12.3748C9.43739 12.064 9.68922 11.8123 9.99989 11.8123C10.3105 11.8123 10.5624 12.064 10.5624 12.3748Z" fill="white"/>
<path d="M34.9574 15.679C34.331 15.6747 33.7195 15.5661 33.1229 15.353C32.5263 15.1357 31.9893 14.7841 31.5121 14.2983C31.0348 13.8082 30.6555 13.1584 30.3743 12.3487C30.093 11.5348 29.9545 10.527 29.9588 9.32528C29.9588 8.20455 30.0781 7.20526 30.3168 6.32741C30.5554 5.44957 30.8984 4.7081 31.3459 4.10298C31.7933 3.49361 32.3324 3.02912 32.9631 2.70952C33.598 2.38991 34.3075 2.23011 35.0916 2.23011C35.9141 2.23011 36.6428 2.39204 37.2777 2.71591C37.9169 3.03977 38.4325 3.48295 38.8246 4.04545C39.2166 4.60369 39.4595 5.23438 39.5533 5.9375H37.2202C37.1009 5.43466 36.8558 5.03409 36.4851 4.7358C36.1186 4.43324 35.6541 4.28196 35.0916 4.28196C34.1839 4.28196 33.4851 4.67614 32.995 5.46449C32.5092 6.25284 32.2642 7.33523 32.2599 8.71165H32.3494C32.5582 8.33665 32.8288 8.01491 33.1612 7.74645C33.4936 7.47798 33.8686 7.27131 34.2862 7.12642C34.7081 6.97727 35.1534 6.9027 35.6222 6.9027C36.3892 6.9027 37.0774 7.08594 37.6868 7.45241C38.3004 7.81889 38.7862 8.32386 39.1442 8.96733C39.5021 9.60653 39.679 10.3395 39.6747 11.1662C39.679 12.027 39.483 12.8004 39.0866 13.4865C38.6903 14.1683 38.1385 14.7053 37.4311 15.0973C36.7237 15.4893 35.8991 15.6832 34.9574 15.679ZM34.9446 13.7614C35.4091 13.7614 35.8246 13.6484 36.1911 13.4226C36.5575 13.1967 36.8473 12.892 37.0604 12.5085C37.2734 12.125 37.3778 11.6946 37.3736 11.2173C37.3778 10.7486 37.2756 10.3246 37.0668 9.94531C36.8622 9.56605 36.5788 9.26562 36.2166 9.04403C35.8544 8.82244 35.4411 8.71165 34.9766 8.71165C34.6314 8.71165 34.3097 8.7777 34.0114 8.9098C33.7131 9.0419 33.4531 9.22514 33.2315 9.45952C33.0099 9.68963 32.8352 9.9581 32.7074 10.2649C32.5838 10.5675 32.5199 10.8913 32.5156 11.2365C32.5199 11.6925 32.6264 12.1122 32.8352 12.4957C33.044 12.8793 33.3317 13.1861 33.6982 13.4162C34.0646 13.6463 34.4801 13.7614 34.9446 13.7614ZM46.4493 15.679C45.8228 15.6747 45.2113 15.5661 44.6147 15.353C44.0182 15.1357 43.4812 14.7841 43.0039 14.2983C42.5267 13.8082 42.1474 13.1584 41.8662 12.3487C41.5849 11.5348 41.4464 10.527 41.4507 9.32528C41.4507 8.20455 41.57 7.20526 41.8086 6.32741C42.0473 5.44957 42.3903 4.7081 42.8378 4.10298C43.2852 3.49361 43.8243 3.02912 44.4549 2.70952C45.0899 2.38991 45.7994 2.23011 46.5835 2.23011C47.4059 2.23011 48.1346 2.39204 48.7696 2.71591C49.4088 3.03977 49.9244 3.48295 50.3164 4.04545C50.7085 4.60369 50.9514 5.23438 51.0451 5.9375H48.712C48.5927 5.43466 48.3477 5.03409 47.977 4.7358C47.6105 4.43324 47.146 4.28196 46.5835 4.28196C45.6758 4.28196 44.977 4.67614 44.4869 5.46449C44.0011 6.25284 43.7561 7.33523 43.7518 8.71165H43.8413C44.0501 8.33665 44.3207 8.01491 44.6531 7.74645C44.9855 7.47798 45.3605 7.27131 45.7781 7.12642C46.2 6.97727 46.6453 6.9027 47.114 6.9027C47.8811 6.9027 48.5693 7.08594 49.1787 7.45241C49.7923 7.81889 50.2781 8.32386 50.6361 8.96733C50.994 9.60653 51.1709 10.3395 51.1666 11.1662C51.1709 12.027 50.9748 12.8004 50.5785 13.4865C50.1822 14.1683 49.6304 14.7053 48.923 15.0973C48.2156 15.4893 47.391 15.6832 46.4493 15.679ZM46.4365 13.7614C46.901 13.7614 47.3164 13.6484 47.6829 13.4226C48.0494 13.1967 48.3392 12.892 48.5522 12.5085C48.7653 12.125 48.8697 11.6946 48.8655 11.2173C48.8697 10.7486 48.7674 10.3246 48.5586 9.94531C48.3541 9.56605 48.0707 9.26562 47.7085 9.04403C47.3463 8.82244 46.9329 8.71165 46.4684 8.71165C46.1233 8.71165 45.8015 8.7777 45.5032 8.9098C45.2049 9.0419 44.945 9.22514 44.7234 9.45952C44.5018 9.68963 44.3271 9.9581 44.1993 10.2649C44.0757 10.5675 44.0118 10.8913 44.0075 11.2365C44.0118 11.6925 44.1183 12.1122 44.3271 12.4957C44.5359 12.8793 44.8236 13.1861 45.19 13.4162C45.5565 13.6463 45.972 13.7614 46.4365 13.7614ZM52.9106 13.071V11.1854L58.4653 2.40909H60.0377V5.09375H59.0789L55.3396 11.0192V11.1214H63.0931V13.071H52.9106ZM59.1556 15.5V12.4957L59.1812 11.652V2.40909H61.4184V15.5H59.1556ZM71.0492 15.5H68.5179L73.1266 2.40909H76.0541L80.6692 15.5H78.138L74.6415 5.09375H74.5392L71.0492 15.5ZM71.1323 10.3672H78.0357V12.272H71.1323V10.3672ZM84.4251 2.40909V15.5H82.1112V2.40909H84.4251ZM95.3944 5.68182L91.898 15.5H89.3412L85.8447 5.68182H88.312L90.5684 12.9751H90.6707L92.9335 5.68182H95.3944ZM99.3597 15.6982C98.7375 15.6982 98.1771 15.5874 97.6786 15.3658C97.1842 15.1399 96.7922 14.8075 96.5024 14.3686C96.2169 13.9297 96.0742 13.3885 96.0742 12.745C96.0742 12.1911 96.1764 11.733 96.381 11.3707C96.5855 11.0085 96.8646 10.7188 97.2183 10.5014C97.572 10.2841 97.9705 10.12 98.4136 10.0092C98.8611 9.89418 99.3234 9.81108 99.8007 9.75994C100.376 9.70028 100.843 9.64702 101.201 9.60014C101.559 9.54901 101.818 9.4723 101.98 9.37003C102.147 9.26349 102.23 9.09943 102.23 8.87784V8.83949C102.23 8.35795 102.087 7.98509 101.801 7.72088C101.516 7.45668 101.105 7.32457 100.568 7.32457C100.001 7.32457 99.5514 7.44815 99.219 7.69531C98.8909 7.94247 98.6693 8.23437 98.5543 8.57102L96.3938 8.2642C96.5642 7.66761 96.8455 7.16903 97.2375 6.76847C97.6296 6.36364 98.109 6.06108 98.6757 5.8608C99.2425 5.65625 99.8689 5.55398 100.555 5.55398C101.028 5.55398 101.499 5.60938 101.968 5.72017C102.436 5.83097 102.865 6.0142 103.252 6.26989C103.64 6.52131 103.951 6.86435 104.186 7.29901C104.424 7.73366 104.544 8.27699 104.544 8.92898V15.5H102.319V14.1513H102.242C102.102 14.424 101.904 14.6797 101.648 14.9183C101.397 15.1527 101.079 15.3423 100.696 15.4872C100.316 15.6278 99.871 15.6982 99.3597 15.6982ZM99.9605 13.9979C100.425 13.9979 100.828 13.9062 101.169 13.723C101.51 13.5355 101.772 13.2884 101.955 12.9815C102.142 12.6747 102.236 12.3402 102.236 11.978V10.821C102.164 10.8807 102.04 10.9361 101.865 10.9872C101.695 11.0384 101.503 11.0831 101.29 11.1214C101.077 11.1598 100.866 11.1939 100.657 11.2237C100.448 11.2536 100.267 11.2791 100.114 11.3004C99.7688 11.3473 99.4598 11.424 99.1871 11.5305C98.9144 11.6371 98.6992 11.7862 98.5415 11.978C98.3838 12.1655 98.305 12.4084 98.305 12.7067C98.305 13.1328 98.4605 13.4545 98.7716 13.6719C99.0827 13.8892 99.479 13.9979 99.9605 13.9979ZM106.69 15.5V5.68182H108.934V7.31818H109.036C109.215 6.75142 109.522 6.31463 109.957 6.00781C110.396 5.69673 110.896 5.54119 111.459 5.54119C111.587 5.54119 111.729 5.54758 111.887 5.56037C112.049 5.56889 112.183 5.58381 112.29 5.60511V7.73366C112.192 7.69957 112.036 7.66974 111.823 7.64418C111.614 7.61435 111.412 7.59943 111.216 7.59943C110.794 7.59943 110.415 7.69105 110.078 7.87429C109.746 8.05327 109.484 8.30256 109.292 8.62216C109.1 8.94176 109.004 9.31037 109.004 9.72798V15.5H106.69ZM116.297 15.6982C115.674 15.6982 115.114 15.5874 114.615 15.3658C114.121 15.1399 113.729 14.8075 113.439 14.3686C113.154 13.9297 113.011 13.3885 113.011 12.745C113.011 12.1911 113.113 11.733 113.318 11.3707C113.522 11.0085 113.802 10.7188 114.155 10.5014C114.509 10.2841 114.907 10.12 115.351 10.0092C115.798 9.89418 116.26 9.81108 116.738 9.75994C117.313 9.70028 117.78 9.64702 118.137 9.60014C118.495 9.54901 118.755 9.4723 118.917 9.37003C119.083 9.26349 119.167 9.09943 119.167 8.87784V8.83949C119.167 8.35795 119.024 7.98509 118.738 7.72088C118.453 7.45668 118.042 7.32457 117.505 7.32457C116.938 7.32457 116.488 7.44815 116.156 7.69531C115.828 7.94247 115.606 8.23437 115.491 8.57102L113.331 8.2642C113.501 7.66761 113.782 7.16903 114.174 6.76847C114.566 6.36364 115.046 6.06108 115.613 5.8608C116.179 5.65625 116.806 5.55398 117.492 5.55398C117.965 5.55398 118.436 5.60938 118.905 5.72017C119.373 5.83097 119.802 6.0142 120.189 6.26989C120.577 6.52131 120.888 6.86435 121.123 7.29901C121.361 7.73366 121.48 8.27699 121.48 8.92898V15.5H119.256V14.1513H119.179C119.039 14.424 118.841 14.6797 118.585 14.9183C118.333 15.1527 118.016 15.3423 117.632 15.4872C117.253 15.6278 116.808 15.6982 116.297 15.6982ZM116.897 13.9979C117.362 13.9979 117.765 13.9062 118.105 13.723C118.446 13.5355 118.708 13.2884 118.892 12.9815C119.079 12.6747 119.173 12.3402 119.173 11.978V10.821C119.101 10.8807 118.977 10.9361 118.802 10.9872C118.632 11.0384 118.44 11.0831 118.227 11.1214C118.014 11.1598 117.803 11.1939 117.594 11.2237C117.385 11.2536 117.204 11.2791 117.051 11.3004C116.706 11.3473 116.397 11.424 116.124 11.5305C115.851 11.6371 115.636 11.7862 115.478 11.978C115.321 12.1655 115.242 12.4084 115.242 12.7067C115.242 13.1328 115.397 13.4545 115.708 13.6719C116.02 13.8892 116.416 13.9979 116.897 13.9979ZM127.271 15.6726C126.499 15.6726 125.809 15.4744 125.2 15.0781C124.59 14.6818 124.109 14.1065 123.755 13.3523C123.401 12.598 123.224 11.6818 123.224 10.6037C123.224 9.51278 123.403 8.59233 123.761 7.84233C124.124 7.08807 124.612 6.51918 125.225 6.13565C125.839 5.74787 126.523 5.55398 127.277 5.55398C127.852 5.55398 128.325 5.65199 128.696 5.84801C129.067 6.03977 129.361 6.27202 129.578 6.54474C129.796 6.81321 129.964 7.06676 130.083 7.3054H130.179V2.40909H132.499V15.5H130.224V13.9531H130.083C129.964 14.1918 129.791 14.4453 129.565 14.7138C129.34 14.978 129.041 15.2038 128.671 15.3913C128.3 15.5788 127.833 15.6726 127.271 15.6726ZM127.916 13.7741C128.406 13.7741 128.824 13.642 129.169 13.3778C129.514 13.1094 129.776 12.7365 129.955 12.2592C130.134 11.782 130.224 11.2259 130.224 10.5909C130.224 9.95597 130.134 9.40412 129.955 8.93537C129.781 8.46662 129.521 8.10227 129.175 7.84233C128.835 7.58239 128.415 7.45241 127.916 7.45241C127.401 7.45241 126.97 7.58665 126.625 7.85511C126.28 8.12358 126.02 8.49432 125.845 8.96733C125.671 9.44034 125.583 9.98153 125.583 10.5909C125.583 11.2045 125.671 11.7521 125.845 12.2337C126.024 12.7109 126.286 13.0881 126.631 13.3651C126.981 13.6378 127.409 13.7741 127.916 13.7741ZM139.068 15.6918C138.109 15.6918 137.278 15.4808 136.575 15.0589C135.872 14.6371 135.326 14.0469 134.938 13.2884C134.555 12.5298 134.363 11.6435 134.363 10.6293C134.363 9.61506 134.555 8.72656 134.938 7.96378C135.326 7.20099 135.872 6.60866 136.575 6.18679C137.278 5.76491 138.109 5.55398 139.068 5.55398C140.027 5.55398 140.858 5.76491 141.561 6.18679C142.264 6.60866 142.807 7.20099 143.191 7.96378C143.578 8.72656 143.772 9.61506 143.772 10.6293C143.772 11.6435 143.578 12.5298 143.191 13.2884C142.807 14.0469 142.264 14.6371 141.561 15.0589C140.858 15.4808 140.027 15.6918 139.068 15.6918ZM139.081 13.8381C139.6 13.8381 140.035 13.6953 140.385 13.4098C140.734 13.12 140.994 12.7322 141.164 12.2464C141.339 11.7607 141.426 11.2195 141.426 10.6229C141.426 10.022 141.339 9.47869 141.164 8.9929C140.994 8.50284 140.734 8.11293 140.385 7.82315C140.035 7.53338 139.6 7.38849 139.081 7.38849C138.548 7.38849 138.105 7.53338 137.751 7.82315C137.402 8.11293 137.139 8.50284 136.965 8.9929C136.794 9.47869 136.709 10.022 136.709 10.6229C136.709 11.2195 136.794 11.7607 136.965 12.2464C137.139 12.7322 137.402 13.12 137.751 13.4098C138.105 13.6953 138.548 13.8381 139.081 13.8381ZM151.624 15.5H149.093L153.702 2.40909H156.629L161.245 15.5H158.713L155.217 5.09375H155.115L151.624 15.5ZM151.708 10.3672H158.611V12.272H151.708V10.3672ZM170.226 5.68182L166.729 15.5H164.173L160.676 5.68182H163.144L165.4 12.9751H165.502L167.765 5.68182H170.226ZM175.66 15.6918C174.675 15.6918 173.825 15.4872 173.109 15.0781C172.398 14.6648 171.85 14.081 171.467 13.3267C171.083 12.5682 170.891 11.6754 170.891 10.6484C170.891 9.63849 171.083 8.75213 171.467 7.98935C171.854 7.2223 172.396 6.62571 173.09 6.19957C173.785 5.76918 174.601 5.55398 175.538 5.55398C176.143 5.55398 176.714 5.65199 177.251 5.84801C177.793 6.03977 178.27 6.33807 178.683 6.7429C179.101 7.14773 179.429 7.66335 179.668 8.28977C179.906 8.91193 180.026 9.65341 180.026 10.5142V11.2237H171.978V9.66406H177.807C177.803 9.22088 177.707 8.8267 177.52 8.48153C177.332 8.1321 177.07 7.85724 176.734 7.65696C176.401 7.45668 176.013 7.35653 175.57 7.35653C175.097 7.35653 174.682 7.47159 174.324 7.7017C173.966 7.92756 173.687 8.22585 173.486 8.59659C173.29 8.96307 173.19 9.36577 173.186 9.80469V11.1662C173.186 11.7372 173.29 12.2273 173.499 12.6364C173.708 13.0412 174 13.3523 174.375 13.5696C174.75 13.7827 175.189 13.8892 175.692 13.8892C176.028 13.8892 176.333 13.8423 176.606 13.7486C176.878 13.6506 177.115 13.5078 177.315 13.3203C177.516 13.1328 177.667 12.9006 177.769 12.6236L179.93 12.8665C179.793 13.4375 179.533 13.9361 179.15 14.3622C178.771 14.7841 178.285 15.1122 177.692 15.3466C177.1 15.5767 176.423 15.6918 175.66 15.6918ZM183.228 15.6406C182.841 15.6406 182.508 15.5043 182.231 15.2315C181.954 14.9588 181.818 14.6264 181.822 14.2344C181.818 13.8509 181.954 13.5227 182.231 13.25C182.508 12.9773 182.841 12.8409 183.228 12.8409C183.603 12.8409 183.929 12.9773 184.206 13.25C184.488 13.5227 184.63 13.8509 184.635 14.2344C184.63 14.4943 184.562 14.7308 184.43 14.9439C184.302 15.157 184.132 15.3274 183.919 15.4553C183.71 15.5788 183.48 15.6406 183.228 15.6406Z" fill="white"/>
</svg>
