<svg width="200" height="33" viewBox="0 0 200 33" fill="none" xmlns="http://www.w3.org/2000/svg">
<rect width="200" height="33" rx="8" fill="#E5E7EB"/>
<rect x="4" y="4" width="94" height="25" rx="4" fill="white"/>
<path d="M16.2855 12.2727H17.7812L20.0611 16.2401H20.1548L22.4347 12.2727H23.9304L20.7642 17.5739V21H19.4517V17.5739L16.2855 12.2727ZM26.6304 21.1321C26.0167 21.1321 25.4812 20.9915 25.0238 20.7102C24.5664 20.429 24.2113 20.0355 23.9585 19.5298C23.7056 19.0241 23.5792 18.4332 23.5792 17.7571C23.5792 17.0781 23.7056 16.4844 23.9585 15.9759C24.2113 15.4673 24.5664 15.0724 25.0238 14.7912C25.4812 14.5099 26.0167 14.3693 26.6304 14.3693C27.244 14.3693 27.7795 14.5099 28.2369 14.7912C28.6943 15.0724 29.0494 15.4673 29.3022 15.9759C29.5551 16.4844 29.6815 17.0781 29.6815 17.7571C29.6815 18.4332 29.5551 19.0241 29.3022 19.5298C29.0494 20.0355 28.6943 20.429 28.2369 20.7102C27.7795 20.9915 27.244 21.1321 26.6304 21.1321ZM26.6346 20.0625C27.0323 20.0625 27.3619 19.9574 27.6233 19.7472C27.8846 19.5369 28.0778 19.2571 28.2028 18.9077C28.3306 18.5582 28.3946 18.1733 28.3946 17.7528C28.3946 17.3352 28.3306 16.9517 28.2028 16.6023C28.0778 16.25 27.8846 15.9673 27.6233 15.7543C27.3619 15.5412 27.0323 15.4347 26.6346 15.4347C26.234 15.4347 25.9017 15.5412 25.6375 15.7543C25.3761 15.9673 25.1815 16.25 25.0537 16.6023C24.9287 16.9517 24.8662 17.3352 24.8662 17.7528C24.8662 18.1733 24.9287 18.5582 25.0537 18.9077C25.1815 19.2571 25.3761 19.5369 25.6375 19.7472C25.9017 19.9574 26.234 20.0625 26.6346 20.0625ZM35.13 18.2855V14.4545H36.4084V21H35.1556V19.8665H35.0874C34.9368 20.2159 34.6954 20.5071 34.363 20.7401C34.0334 20.9702 33.6229 21.0852 33.1314 21.0852C32.711 21.0852 32.3388 20.9929 32.015 20.8082C31.6939 20.6207 31.4411 20.3438 31.2564 19.9773C31.0746 19.6108 30.9837 19.1577 30.9837 18.6179V14.4545H32.2579V18.4645C32.2579 18.9105 32.3814 19.2656 32.6286 19.5298C32.8758 19.794 33.1968 19.9261 33.5917 19.9261C33.8303 19.9261 34.0675 19.8665 34.3033 19.7472C34.542 19.6278 34.7394 19.4474 34.8957 19.206C35.0547 18.9645 35.1329 18.6577 35.13 18.2855ZM38.0004 21V14.4545H39.232V15.4943H39.3002C39.4195 15.142 39.6297 14.8651 39.9308 14.6634C40.2348 14.4588 40.5786 14.3565 40.9621 14.3565C41.0416 14.3565 41.1354 14.3594 41.2433 14.3651C41.3541 14.3707 41.4408 14.3778 41.5033 14.3864V15.6051C41.4521 15.5909 41.3612 15.5753 41.2306 15.5582C41.0999 15.5384 40.9692 15.5284 40.8385 15.5284C40.5374 15.5284 40.2689 15.5923 40.0331 15.7202C39.8002 15.8452 39.6155 16.0199 39.4791 16.2443C39.3428 16.4659 39.2746 16.7187 39.2746 17.0028V21H38.0004ZM45.5417 23.4545V14.4545H46.786V15.5156H46.8925C46.9664 15.3793 47.0729 15.2216 47.2121 15.0426C47.3513 14.8636 47.5445 14.7074 47.7917 14.5739C48.0388 14.4375 48.3656 14.3693 48.7718 14.3693C49.3002 14.3693 49.7718 14.5028 50.1866 14.7699C50.6013 15.0369 50.9266 15.4219 51.1624 15.9247C51.4011 16.4276 51.5204 17.0327 51.5204 17.7401C51.5204 18.4474 51.4025 19.054 51.1667 19.5597C50.9309 20.0625 50.607 20.4503 50.1951 20.723C49.7832 20.9929 49.313 21.1278 48.7846 21.1278C48.3869 21.1278 48.0616 21.0611 47.8087 20.9276C47.5587 20.794 47.3627 20.6378 47.2207 20.4588C47.0786 20.2798 46.9692 20.1207 46.8925 19.9815H46.8158V23.4545H45.5417ZM46.7903 17.7273C46.7903 18.1875 46.857 18.5909 46.9906 18.9375C47.1241 19.2841 47.3173 19.5554 47.5701 19.7514C47.8229 19.9446 48.1326 20.0412 48.4991 20.0412C48.8798 20.0412 49.1979 19.9403 49.4536 19.7386C49.7093 19.5341 49.9025 19.2571 50.0332 18.9077C50.1667 18.5582 50.2335 18.1648 50.2335 17.7273C50.2335 17.2955 50.1681 16.9077 50.0374 16.5639C49.9096 16.2202 49.7164 15.9489 49.4579 15.75C49.2022 15.5511 48.8826 15.4517 48.4991 15.4517C48.1298 15.4517 47.8173 15.5469 47.5616 15.7372C47.3087 15.9276 47.117 16.1932 46.9863 16.5341C46.8556 16.875 46.7903 17.2727 46.7903 17.7273ZM55.585 21.1321C54.9714 21.1321 54.4359 20.9915 53.9785 20.7102C53.5211 20.429 53.166 20.0355 52.9132 19.5298C52.6603 19.0241 52.5339 18.4332 52.5339 17.7571C52.5339 17.0781 52.6603 16.4844 52.9132 15.9759C53.166 15.4673 53.5211 15.0724 53.9785 14.7912C54.4359 14.5099 54.9714 14.3693 55.585 14.3693C56.1987 14.3693 56.7342 14.5099 57.1916 14.7912C57.649 15.0724 58.0041 15.4673 58.2569 15.9759C58.5098 16.4844 58.6362 17.0781 58.6362 17.7571C58.6362 18.4332 58.5098 19.0241 58.2569 19.5298C58.0041 20.0355 57.649 20.429 57.1916 20.7102C56.7342 20.9915 56.1987 21.1321 55.585 21.1321ZM55.5893 20.0625C55.987 20.0625 56.3166 19.9574 56.5779 19.7472C56.8393 19.5369 57.0325 19.2571 57.1575 18.9077C57.2853 18.5582 57.3492 18.1733 57.3492 17.7528C57.3492 17.3352 57.2853 16.9517 57.1575 16.6023C57.0325 16.25 56.8393 15.9673 56.5779 15.7543C56.3166 15.5412 55.987 15.4347 55.5893 15.4347C55.1887 15.4347 54.8563 15.5412 54.5921 15.7543C54.3308 15.9673 54.1362 16.25 54.0083 16.6023C53.8833 16.9517 53.8208 17.3352 53.8208 17.7528C53.8208 18.1733 53.8833 18.5582 54.0083 18.9077C54.1362 19.2571 54.3308 19.5369 54.5921 19.7472C54.8563 19.9574 55.1887 20.0625 55.5893 20.0625ZM59.9384 21V14.4545H61.1699V15.4943H61.2381C61.3574 15.142 61.5677 14.8651 61.8688 14.6634C62.1728 14.4588 62.5165 14.3565 62.9001 14.3565C62.9796 14.3565 63.0734 14.3594 63.1813 14.3651C63.2921 14.3707 63.3787 14.3778 63.4412 14.3864V15.6051C63.3901 15.5909 63.2992 15.5753 63.1685 15.5582C63.0378 15.5384 62.9072 15.5284 62.7765 15.5284C62.4753 15.5284 62.2069 15.5923 61.9711 15.7202C61.7381 15.8452 61.5535 16.0199 61.4171 16.2443C61.2807 16.4659 61.2126 16.7187 61.2126 17.0028V21H59.9384ZM67.866 14.4545V15.4773H64.2907V14.4545H67.866ZM65.2495 12.8864H66.5237V19.0781C66.5237 19.3253 66.5606 19.5114 66.6345 19.6364C66.7083 19.7585 66.8035 19.8423 66.92 19.8878C67.0393 19.9304 67.1686 19.9517 67.3078 19.9517C67.41 19.9517 67.4995 19.9446 67.5762 19.9304C67.6529 19.9162 67.7126 19.9048 67.7552 19.8963L67.9853 20.9489C67.9114 20.9773 67.8063 21.0057 67.67 21.0341C67.5336 21.0653 67.3632 21.0824 67.1586 21.0852C66.8234 21.0909 66.5109 21.0312 66.2211 20.9062C65.9313 20.7812 65.697 20.5881 65.518 20.3267C65.339 20.0653 65.2495 19.7372 65.2495 19.3423V12.8864ZM69.1554 21V14.4545H70.4296V21H69.1554ZM69.7989 13.4446C69.5773 13.4446 69.387 13.3707 69.2279 13.223C69.0716 13.0724 68.9935 12.8935 68.9935 12.6861C68.9935 12.4759 69.0716 12.2969 69.2279 12.1491C69.387 11.9986 69.5773 11.9233 69.7989 11.9233C70.0205 11.9233 70.2094 11.9986 70.3657 12.1491C70.5248 12.2969 70.6043 12.4759 70.6043 12.6861C70.6043 12.8935 70.5248 13.0724 70.3657 13.223C70.2094 13.3707 70.0205 13.4446 69.7989 13.4446ZM74.7808 21.1321C74.1672 21.1321 73.6317 20.9915 73.1743 20.7102C72.7169 20.429 72.3618 20.0355 72.1089 19.5298C71.8561 19.0241 71.7297 18.4332 71.7297 17.7571C71.7297 17.0781 71.8561 16.4844 72.1089 15.9759C72.3618 15.4673 72.7169 15.0724 73.1743 14.7912C73.6317 14.5099 74.1672 14.3693 74.7808 14.3693C75.3945 14.3693 75.93 14.5099 76.3874 14.7912C76.8447 15.0724 77.1999 15.4673 77.4527 15.9759C77.7055 16.4844 77.832 17.0781 77.832 17.7571C77.832 18.4332 77.7055 19.0241 77.4527 19.5298C77.1999 20.0355 76.8447 20.429 76.3874 20.7102C75.93 20.9915 75.3945 21.1321 74.7808 21.1321ZM74.7851 20.0625C75.1828 20.0625 75.5124 19.9574 75.7737 19.7472C76.0351 19.5369 76.2283 19.2571 76.3533 18.9077C76.4811 18.5582 76.545 18.1733 76.545 17.7528C76.545 17.3352 76.4811 16.9517 76.3533 16.6023C76.2283 16.25 76.0351 15.9673 75.7737 15.7543C75.5124 15.5412 75.1828 15.4347 74.7851 15.4347C74.3845 15.4347 74.0521 15.5412 73.7879 15.7543C73.5266 15.9673 73.332 16.25 73.2041 16.6023C73.0791 16.9517 73.0166 17.3352 73.0166 17.7528C73.0166 18.1733 73.0791 18.5582 73.2041 18.9077C73.332 19.2571 73.5266 19.5369 73.7879 19.7472C74.0521 19.9574 74.3845 20.0625 74.7851 20.0625ZM80.4083 17.1136V21H79.1342V14.4545H80.3572V15.5199H80.4382C80.5887 15.1733 80.8245 14.8949 81.1456 14.6847C81.4694 14.4744 81.8771 14.3693 82.3686 14.3693C82.8146 14.3693 83.2052 14.4631 83.5404 14.6506C83.8757 14.8352 84.1356 15.1108 84.3203 15.4773C84.5049 15.8437 84.5973 16.2969 84.5973 16.8366V21H83.3231V16.9901C83.3231 16.5156 83.1995 16.1449 82.9524 15.8778C82.7052 15.608 82.3657 15.473 81.9339 15.473C81.6385 15.473 81.3757 15.5369 81.1456 15.6648C80.9183 15.7926 80.7379 15.9801 80.6044 16.2273C80.4737 16.4716 80.4083 16.767 80.4083 17.1136Z" fill="#1D1D1D"/>
<path d="M122.528 13.4062V12.2727H129.283V13.4062H126.56V21H125.247V13.4062H122.528ZM132.361 21.1321C131.747 21.1321 131.212 20.9915 130.754 20.7102C130.297 20.429 129.942 20.0355 129.689 19.5298C129.436 19.0241 129.31 18.4332 129.31 17.7571C129.31 17.0781 129.436 16.4844 129.689 15.9759C129.942 15.4673 130.297 15.0724 130.754 14.7912C131.212 14.5099 131.747 14.3693 132.361 14.3693C132.974 14.3693 133.51 14.5099 133.967 14.7912C134.425 15.0724 134.78 15.4673 135.033 15.9759C135.286 16.4844 135.412 17.0781 135.412 17.7571C135.412 18.4332 135.286 19.0241 135.033 19.5298C134.78 20.0355 134.425 20.429 133.967 20.7102C133.51 20.9915 132.974 21.1321 132.361 21.1321ZM132.365 20.0625C132.763 20.0625 133.092 19.9574 133.354 19.7472C133.615 19.5369 133.808 19.2571 133.933 18.9077C134.061 18.5582 134.125 18.1733 134.125 17.7528C134.125 17.3352 134.061 16.9517 133.933 16.6023C133.808 16.25 133.615 15.9673 133.354 15.7543C133.092 15.5412 132.763 15.4347 132.365 15.4347C131.965 15.4347 131.632 15.5412 131.368 15.7543C131.107 15.9673 130.912 16.25 130.784 16.6023C130.659 16.9517 130.597 17.3352 130.597 17.7528C130.597 18.1733 130.659 18.5582 130.784 18.9077C130.912 19.2571 131.107 19.5369 131.368 19.7472C131.632 19.9574 131.965 20.0625 132.365 20.0625ZM139.77 14.4545V15.4773H136.194V14.4545H139.77ZM137.153 12.8864H138.427V19.0781C138.427 19.3253 138.464 19.5114 138.538 19.6364C138.612 19.7585 138.707 19.8423 138.824 19.8878C138.943 19.9304 139.072 19.9517 139.211 19.9517C139.314 19.9517 139.403 19.9446 139.48 19.9304C139.557 19.9162 139.616 19.9048 139.659 19.8963L139.889 20.9489C139.815 20.9773 139.71 21.0057 139.574 21.0341C139.437 21.0653 139.267 21.0824 139.062 21.0852C138.727 21.0909 138.414 21.0312 138.125 20.9062C137.835 20.7812 137.601 20.5881 137.422 20.3267C137.243 20.0653 137.153 19.7372 137.153 19.3423V12.8864ZM142.964 21.1449C142.549 21.1449 142.174 21.0682 141.839 20.9148C141.504 20.7585 141.238 20.5327 141.042 20.2372C140.849 19.9418 140.752 19.5795 140.752 19.1506C140.752 18.7812 140.823 18.4773 140.965 18.2386C141.107 18 141.299 17.8111 141.541 17.6719C141.782 17.5327 142.052 17.4276 142.35 17.3565C142.649 17.2855 142.952 17.2315 143.262 17.1946C143.654 17.1491 143.972 17.1122 144.217 17.0838C144.461 17.0526 144.639 17.0028 144.749 16.9347C144.86 16.8665 144.916 16.7557 144.916 16.6023V16.5724C144.916 16.2003 144.81 15.9119 144.6 15.7074C144.393 15.5028 144.083 15.4006 143.671 15.4006C143.242 15.4006 142.904 15.4957 142.657 15.6861C142.413 15.8736 142.244 16.0824 142.15 16.3125L140.952 16.0398C141.095 15.642 141.302 15.321 141.575 15.0767C141.85 14.8295 142.167 14.6506 142.525 14.5398C142.883 14.4261 143.259 14.3693 143.654 14.3693C143.916 14.3693 144.193 14.4006 144.485 14.4631C144.781 14.5227 145.056 14.6335 145.312 14.7955C145.57 14.9574 145.782 15.1889 145.947 15.4901C146.112 15.7884 146.194 16.1761 146.194 16.6534V21H144.95V20.1051H144.899C144.816 20.2699 144.693 20.4318 144.528 20.5909C144.363 20.75 144.151 20.8821 143.893 20.9872C143.634 21.0923 143.325 21.1449 142.964 21.1449ZM143.241 20.1222C143.593 20.1222 143.894 20.0526 144.144 19.9134C144.397 19.7741 144.589 19.5923 144.72 19.3679C144.853 19.1406 144.92 18.8977 144.92 18.6392V17.7955C144.874 17.8409 144.786 17.8835 144.656 17.9233C144.528 17.9602 144.381 17.9929 144.217 18.0213C144.052 18.0469 143.891 18.071 143.735 18.0938C143.579 18.1136 143.448 18.1307 143.343 18.1449C143.096 18.1761 142.87 18.2287 142.666 18.3026C142.464 18.3764 142.302 18.483 142.18 18.6222C142.06 18.7585 142.001 18.9403 142.001 19.1676C142.001 19.483 142.117 19.7216 142.35 19.8835C142.583 20.0426 142.88 20.1222 143.241 20.1222ZM149.045 12.2727V21H147.771V12.2727H149.045ZM153.695 21V14.4545H154.927V15.4943H154.995C155.114 15.142 155.324 14.8651 155.626 14.6634C155.93 14.4588 156.273 14.3565 156.657 14.3565C156.736 14.3565 156.83 14.3594 156.938 14.3651C157.049 14.3707 157.135 14.3778 157.198 14.3864V15.6051C157.147 15.5909 157.056 15.5753 156.925 15.5582C156.795 15.5384 156.664 15.5284 156.533 15.5284C156.232 15.5284 155.964 15.5923 155.728 15.7202C155.495 15.8452 155.31 16.0199 155.174 16.2443C155.037 16.4659 154.969 16.7187 154.969 17.0028V21H153.695ZM160.767 21.1321C160.122 21.1321 159.567 20.9943 159.101 20.7188C158.638 20.4403 158.28 20.0497 158.027 19.5469C157.777 19.0412 157.652 18.4489 157.652 17.7699C157.652 17.0994 157.777 16.5085 158.027 15.9972C158.28 15.4858 158.632 15.0866 159.084 14.7997C159.539 14.5128 160.07 14.3693 160.678 14.3693C161.047 14.3693 161.405 14.4304 161.752 14.5526C162.098 14.6747 162.409 14.8665 162.685 15.1278C162.96 15.3892 163.178 15.7287 163.337 16.1463C163.496 16.5611 163.575 17.0653 163.575 17.6591V18.1108H158.372V17.1562H162.327C162.327 16.821 162.259 16.5241 162.122 16.2656C161.986 16.0043 161.794 15.7983 161.547 15.6477C161.303 15.4972 161.016 15.4219 160.686 15.4219C160.328 15.4219 160.016 15.5099 159.749 15.6861C159.485 15.8594 159.28 16.0866 159.135 16.3679C158.993 16.6463 158.922 16.9489 158.922 17.2756V18.0213C158.922 18.4588 158.999 18.831 159.152 19.1378C159.308 19.4446 159.526 19.679 159.804 19.8409C160.083 20 160.408 20.0795 160.78 20.0795C161.022 20.0795 161.242 20.0455 161.441 19.9773C161.639 19.9062 161.811 19.8011 161.956 19.6619C162.101 19.5227 162.212 19.3509 162.289 19.1463L163.495 19.3636C163.398 19.7187 163.225 20.0298 162.975 20.2969C162.727 20.5611 162.416 20.767 162.041 20.9148C161.669 21.0597 161.245 21.1321 160.767 21.1321ZM166.143 17.1136V21H164.869V14.4545H166.092V15.5199H166.173C166.324 15.1733 166.56 14.8949 166.881 14.6847C167.204 14.4744 167.612 14.3693 168.104 14.3693C168.55 14.3693 168.94 14.4631 169.275 14.6506C169.611 14.8352 169.871 15.1108 170.055 15.4773C170.24 15.8437 170.332 16.2969 170.332 16.8366V21H169.058V16.9901C169.058 16.5156 168.935 16.1449 168.687 15.8778C168.44 15.608 168.101 15.473 167.669 15.473C167.373 15.473 167.111 15.5369 166.881 15.6648C166.653 15.7926 166.473 15.9801 166.339 16.2273C166.209 16.4716 166.143 16.767 166.143 17.1136ZM174.976 14.4545V15.4773H171.401V14.4545H174.976ZM172.36 12.8864H173.634V19.0781C173.634 19.3253 173.671 19.5114 173.745 19.6364C173.819 19.7585 173.914 19.8423 174.03 19.8878C174.15 19.9304 174.279 19.9517 174.418 19.9517C174.52 19.9517 174.61 19.9446 174.687 19.9304C174.763 19.9162 174.823 19.9048 174.866 19.8963L175.096 20.9489C175.022 20.9773 174.917 21.0057 174.78 21.0341C174.644 21.0653 174.474 21.0824 174.269 21.0852C173.934 21.0909 173.621 21.0312 173.332 20.9062C173.042 20.7812 172.807 20.5881 172.628 20.3267C172.449 20.0653 172.36 19.7372 172.36 19.3423V12.8864Z" fill="#6B7280"/>
</svg>
