<svg width="144" height="36" viewBox="0 0 144 36" fill="none" xmlns="http://www.w3.org/2000/svg">
<rect x="1" y="0.5" width="142" height="35" rx="4.5" fill="#FEF2F2" fill-opacity="0.5"/>
<rect x="1" y="0.5" width="142" height="35" rx="4.5" stroke="#DC2626"/>
<path fill-rule="evenodd" clip-rule="evenodd" d="M23.1284 11.25H21.8718L15.6261 24.1875H29.3741L23.1284 11.25ZM24.6481 10.5164C24.3665 9.93314 23.776 9.5625 23.1284 9.5625H21.8718C21.2241 9.5625 20.6336 9.93314 20.3521 10.5164L13.7168 24.261C13.3562 25.008 13.9004 25.875 14.7299 25.875H30.2703C31.0997 25.875 31.644 25.008 31.2833 24.261L24.6481 10.5164ZM23.3438 14.3438V15.1875V18V18.8438H21.6563V18V15.1875V14.3438H23.3438ZM22.5001 22.5C23.1214 22.5 23.6251 21.9963 23.6251 21.375C23.6251 20.7537 23.1214 20.25 22.5001 20.25C21.8788 20.25 21.3751 20.7537 21.3751 21.375C21.3751 21.9963 21.8788 22.5 22.5001 22.5Z" fill="#DC2626"/>
<path d="M45.9148 23H42.6186V12.8182H46.0192C47.0168 12.8182 47.8736 13.022 48.5895 13.4297C49.3054 13.834 49.8539 14.4157 50.2351 15.1747C50.6196 15.9304 50.8118 16.8369 50.8118 17.8942C50.8118 18.9548 50.6179 19.8662 50.2301 20.6286C49.8456 21.3909 49.2888 21.9775 48.5597 22.3885C47.8305 22.7962 46.9489 23 45.9148 23ZM44.1548 21.6577H45.8303C46.6058 21.6577 47.2505 21.5118 47.7642 21.2202C48.2779 20.9252 48.6624 20.4993 48.9176 19.9425C49.1728 19.3823 49.3004 18.6996 49.3004 17.8942C49.3004 17.0954 49.1728 16.4176 48.9176 15.8608C48.6657 15.304 48.2895 14.8814 47.7891 14.593C47.2886 14.3047 46.6671 14.1605 45.9247 14.1605H44.1548V21.6577ZM57.3002 19.8331V15.3636H58.7916V23H57.33V21.6776H57.2504C57.0748 22.0852 56.7931 22.425 56.4053 22.6967C56.0208 22.9652 55.5419 23.0994 54.9685 23.0994C54.478 23.0994 54.0438 22.9917 53.6659 22.7763C53.2914 22.5575 52.9964 22.2344 52.781 21.8068C52.5689 21.3793 52.4628 20.8506 52.4628 20.2209V15.3636H53.9493V20.0419C53.9493 20.5623 54.0935 20.9766 54.3818 21.2848C54.6702 21.593 55.0447 21.7472 55.5054 21.7472C55.7838 21.7472 56.0606 21.6776 56.3357 21.5384C56.6141 21.3991 56.8444 21.1887 57.0267 20.907C57.2123 20.6252 57.3035 20.2673 57.3002 19.8331ZM63.9402 23.1541C63.1878 23.1541 62.5398 22.9934 61.9963 22.6719C61.456 22.3471 61.0384 21.8913 60.7434 21.3047C60.4518 20.7147 60.3059 20.0237 60.3059 19.2315C60.3059 18.4493 60.4518 17.7599 60.7434 17.1634C61.0384 16.5668 61.4494 16.1011 61.9764 15.7663C62.5067 15.4316 63.1265 15.2642 63.8358 15.2642C64.2666 15.2642 64.6843 15.3355 65.0886 15.478C65.493 15.6205 65.8559 15.8442 66.1774 16.1491C66.4989 16.4541 66.7524 16.8501 66.938 17.3374C67.1236 17.8213 67.2164 18.4096 67.2164 19.1023V19.6293H61.1461V18.5156H65.7598C65.7598 18.1245 65.6802 17.7782 65.5211 17.4766C65.362 17.1716 65.1383 16.9313 64.85 16.7557C64.5649 16.58 64.2302 16.4922 63.8457 16.4922C63.4281 16.4922 63.0635 16.5949 62.752 16.8004C62.4437 17.0026 62.2051 17.2678 62.0361 17.5959C61.8703 17.9207 61.7875 18.2737 61.7875 18.6548V19.5249C61.7875 20.0353 61.877 20.4695 62.0559 20.8274C62.2382 21.1854 62.4918 21.4588 62.8166 21.6477C63.1414 21.8333 63.5209 21.9261 63.9551 21.9261C64.2368 21.9261 64.4937 21.8864 64.7257 21.8068C64.9577 21.724 65.1582 21.6013 65.3272 21.4389C65.4963 21.2765 65.6255 21.076 65.715 20.8374L67.122 21.0909C67.0093 21.5052 66.8071 21.8681 66.5155 22.1797C66.2271 22.4879 65.8642 22.7282 65.4267 22.9006C64.9925 23.0696 64.497 23.1541 63.9402 23.1541ZM72.2909 23V15.3636H73.7774V23H72.2909ZM73.0416 14.1854C72.783 14.1854 72.561 14.0992 72.3754 13.9268C72.1931 13.7512 72.1019 13.5424 72.1019 13.3004C72.1019 13.0552 72.1931 12.8464 72.3754 12.674C72.561 12.4983 72.783 12.4105 73.0416 12.4105C73.3001 12.4105 73.5205 12.4983 73.7028 12.674C73.8884 12.8464 73.9812 13.0552 73.9812 13.3004C73.9812 13.5424 73.8884 13.7512 73.7028 13.9268C73.5205 14.0992 73.3001 14.1854 73.0416 14.1854ZM77.1237 18.4659V23H75.6372V15.3636H77.064V16.6065H77.1585C77.3341 16.2022 77.6092 15.8774 77.9838 15.6321C78.3616 15.3868 78.8372 15.2642 79.4106 15.2642C79.931 15.2642 80.3867 15.3736 80.7778 15.5923C81.1689 15.8078 81.4722 16.1293 81.6876 16.5568C81.903 16.9844 82.0108 17.513 82.0108 18.1428V23H80.5243V18.3217C80.5243 17.7682 80.3801 17.3357 80.0917 17.0241C79.8034 16.7093 79.4073 16.5518 78.9035 16.5518C78.5588 16.5518 78.2522 16.6264 77.9838 16.7756C77.7186 16.9247 77.5082 17.1435 77.3524 17.4318C77.1999 17.7169 77.1237 18.0616 77.1237 18.4659ZM87.1958 21.0114V19.7685L91.5956 12.8182H92.575V14.6477H91.9536L88.8066 19.6293V19.7088H94.8371V21.0114H87.1958ZM92.0232 23V20.6335L92.0331 20.0668V12.8182H93.4898V23H92.0232ZM102.873 23.1491C102.257 23.1491 101.707 22.9917 101.223 22.6768C100.742 22.3587 100.364 21.9062 100.089 21.3196C99.8175 20.7296 99.6816 20.022 99.6816 19.1967C99.6816 18.3714 99.8191 17.6655 100.094 17.0788C100.373 16.4922 100.754 16.0431 101.238 15.7315C101.722 15.42 102.27 15.2642 102.883 15.2642C103.357 15.2642 103.738 15.3438 104.027 15.5028C104.318 15.6586 104.544 15.8409 104.703 16.0497C104.865 16.2585 104.991 16.4425 105.081 16.6016H105.17V12.8182H106.657V23H105.205V21.8118H105.081C104.991 21.9742 104.862 22.1598 104.693 22.3686C104.527 22.5774 104.299 22.7597 104.007 22.9155C103.715 23.0713 103.337 23.1491 102.873 23.1491ZM103.201 21.8814C103.629 21.8814 103.99 21.7687 104.285 21.5433C104.584 21.3146 104.809 20.9981 104.961 20.5938C105.117 20.1894 105.195 19.7187 105.195 19.1818C105.195 18.6515 105.119 18.1875 104.966 17.7898C104.814 17.392 104.59 17.0821 104.295 16.8601C104 16.638 103.636 16.527 103.201 16.527C102.754 16.527 102.381 16.643 102.083 16.875C101.785 17.107 101.559 17.4235 101.407 17.8246C101.258 18.2256 101.183 18.678 101.183 19.1818C101.183 19.6922 101.259 20.1513 101.412 20.5589C101.564 20.9666 101.79 21.2898 102.088 21.5284C102.389 21.7637 102.761 21.8814 103.201 21.8814ZM110.861 23.169C110.377 23.169 109.939 23.0795 109.548 22.9006C109.157 22.7183 108.847 22.4548 108.618 22.1101C108.393 21.7654 108.28 21.3428 108.28 20.8423C108.28 20.4115 108.363 20.0568 108.529 19.7784C108.695 19.5 108.918 19.2796 109.2 19.1172C109.482 18.9548 109.797 18.8321 110.145 18.7493C110.493 18.6664 110.847 18.6035 111.209 18.5604C111.666 18.5073 112.037 18.4643 112.322 18.4311C112.607 18.3946 112.814 18.3366 112.944 18.2571C113.073 18.1776 113.138 18.0483 113.138 17.8693V17.8345C113.138 17.4003 113.015 17.0639 112.77 16.8253C112.528 16.5866 112.167 16.4673 111.686 16.4673C111.185 16.4673 110.791 16.5784 110.503 16.8004C110.218 17.0192 110.02 17.2628 109.911 17.5312L108.514 17.2131C108.68 16.7491 108.922 16.3745 109.24 16.0895C109.561 15.8011 109.931 15.5923 110.349 15.4631C110.766 15.3305 111.205 15.2642 111.666 15.2642C111.971 15.2642 112.294 15.3007 112.636 15.3736C112.98 15.4432 113.302 15.5724 113.6 15.7614C113.902 15.9503 114.149 16.2204 114.341 16.5717C114.533 16.9197 114.629 17.3722 114.629 17.929V23H113.177V21.956H113.118C113.022 22.1482 112.877 22.3371 112.685 22.5227C112.493 22.7083 112.246 22.8625 111.944 22.9851C111.643 23.1077 111.282 23.169 110.861 23.169ZM111.184 21.9759C111.595 21.9759 111.946 21.8946 112.238 21.7322C112.533 21.5698 112.756 21.3577 112.909 21.0959C113.065 20.8307 113.143 20.5473 113.143 20.2457V19.2614C113.09 19.3144 112.987 19.3641 112.834 19.4105C112.685 19.4536 112.515 19.4917 112.322 19.5249C112.13 19.5547 111.943 19.5829 111.761 19.6094C111.578 19.6326 111.426 19.6525 111.303 19.669C111.015 19.7055 110.751 19.7668 110.513 19.853C110.277 19.9392 110.088 20.0634 109.946 20.2259C109.807 20.3849 109.737 20.5971 109.737 20.8622C109.737 21.2301 109.873 21.5085 110.145 21.6974C110.417 21.883 110.763 21.9759 111.184 21.9759ZM117.135 25.8636C116.913 25.8636 116.711 25.8454 116.529 25.8089C116.346 25.7758 116.211 25.7393 116.121 25.6996L116.479 24.4815C116.751 24.5545 116.993 24.5859 117.205 24.576C117.417 24.5661 117.604 24.4865 117.767 24.3374C117.932 24.1882 118.078 23.9446 118.204 23.6065L118.388 23.0994L115.594 15.3636H117.185L119.119 21.2898H119.198L121.132 15.3636H122.728L119.581 24.0192C119.435 24.4169 119.25 24.7533 119.024 25.0284C118.799 25.3068 118.531 25.5156 118.219 25.6548C117.908 25.794 117.546 25.8636 117.135 25.8636ZM129.708 17.228L128.36 17.4666C128.304 17.2943 128.214 17.1302 128.092 16.9744C127.973 16.8187 127.81 16.6911 127.605 16.5916C127.399 16.4922 127.142 16.4425 126.834 16.4425C126.413 16.4425 126.062 16.5369 125.78 16.7259C125.498 16.9115 125.357 17.1518 125.357 17.4467C125.357 17.7019 125.452 17.9074 125.641 18.0632C125.83 18.219 126.135 18.3466 126.556 18.446L127.769 18.7244C128.471 18.8868 128.995 19.1371 129.34 19.4751C129.684 19.8132 129.857 20.2524 129.857 20.7926C129.857 21.25 129.724 21.6577 129.459 22.0156C129.197 22.3703 128.831 22.6487 128.36 22.8509C127.893 23.053 127.351 23.1541 126.735 23.1541C125.879 23.1541 125.182 22.9718 124.642 22.6072C124.101 22.2393 123.77 21.7173 123.647 21.0412L125.084 20.8224C125.174 21.197 125.357 21.4804 125.636 21.6726C125.914 21.8615 126.277 21.956 126.725 21.956C127.212 21.956 127.601 21.8549 127.893 21.6527C128.185 21.4472 128.33 21.197 128.33 20.902C128.33 20.6634 128.241 20.4628 128.062 20.3004C127.886 20.138 127.616 20.0154 127.252 19.9325L125.959 19.6491C125.246 19.4867 124.719 19.2282 124.378 18.8736C124.04 18.5189 123.871 18.0698 123.871 17.5263C123.871 17.0755 123.997 16.6811 124.249 16.343C124.501 16.005 124.849 15.7415 125.293 15.5526C125.737 15.3603 126.246 15.2642 126.819 15.2642C127.644 15.2642 128.294 15.4432 128.768 15.8011C129.242 16.1558 129.555 16.6314 129.708 17.228Z" fill="#DC2626"/>
</svg>
