<svg width="65" height="65" viewBox="0 0 65 65" fill="none" xmlns="http://www.w3.org/2000/svg">
<rect width="65" height="65" rx="32.5" fill="#635BFF"/>
<path fill-rule="evenodd" clip-rule="evenodd" d="M33.4084 20.3125H31.5959C30.0944 20.3125 28.8772 21.5717 28.8772 23.125V30.625C28.8772 32.1783 30.0944 33.4375 31.5959 33.4375H33.4084C34.9099 33.4375 36.1272 32.1783 36.1272 30.625V23.125C36.1272 21.5717 34.9099 20.3125 33.4084 20.3125ZM31.5959 17.5C28.5928 17.5 26.1584 20.0184 26.1584 23.125V30.625C26.1584 33.7316 28.5928 36.25 31.5959 36.25H33.4084C36.4114 36.25 38.8459 33.7316 38.8459 30.625V23.125C38.8459 20.0184 36.4114 17.5 33.4084 17.5H31.5959ZM31.1428 42.2665V46.0938V47.5H33.8615V46.0938V42.2665C38.9541 41.6843 43.1024 37.8691 44.351 32.8505L44.6898 31.4887L42.057 30.7876L41.718 32.1495C40.6617 36.3955 36.9341 39.5312 32.5022 39.5312C28.0701 39.5312 24.3426 36.3955 23.2862 32.1495L22.9474 30.7876L20.3145 31.4887L20.6533 32.8505C21.9019 37.8691 26.0502 41.6843 31.1428 42.2665Z" fill="white"/>
</svg>
