<svg width="18" height="18" viewBox="0 0 18 18" fill="none" xmlns="http://www.w3.org/2000/svg">
<path fill-rule="evenodd" clip-rule="evenodd" d="M3.09375 0.5625C2.00644 0.5625 1.125 1.44394 1.125 2.53125V10.9688C1.125 12.0561 2.00644 12.9375 3.09375 12.9375H4.21875H5.0625V11.25H4.21875H3.09375C2.93842 11.25 2.8125 11.1241 2.8125 10.9688V2.53125C2.8125 2.37592 2.93842 2.25 3.09375 2.25H9.28125C9.43658 2.25 9.5625 2.37592 9.5625 2.53125V3.375H11.25V2.53125C11.25 1.44394 10.3686 0.5625 9.28125 0.5625H3.09375ZM8.71875 5.0625C7.63144 5.0625 6.75 5.94394 6.75 7.03125V15.4688C6.75 16.5561 7.63144 17.4375 8.71875 17.4375H14.9062C15.9936 17.4375 16.875 16.5561 16.875 15.4688V7.03125C16.875 5.94394 15.9936 5.0625 14.9062 5.0625H8.71875ZM8.4375 7.03125C8.4375 6.87592 8.56342 6.75 8.71875 6.75H14.9062C15.0616 6.75 15.1875 6.87592 15.1875 7.03125V15.4688C15.1875 15.6241 15.0616 15.75 14.9062 15.75H8.71875C8.56342 15.75 8.4375 15.6241 8.4375 15.4688V7.03125Z" fill="#6B7280"/>
</svg>
