<svg width="101" height="101" viewBox="0 0 101 101" fill="none" xmlns="http://www.w3.org/2000/svg">
<rect x="0.5" y="0.5" width="100" height="100" rx="50" fill="#635BFF"/>
<path fill-rule="evenodd" clip-rule="evenodd" d="M51.8468 32.625H49.1593C46.9329 32.625 45.1281 34.4718 45.1281 36.75V47.75C45.1281 50.0282 46.9329 51.875 49.1593 51.875H51.8468C54.0732 51.875 55.8781 50.0282 55.8781 47.75V36.75C55.8781 34.4718 54.0732 32.625 51.8468 32.625ZM49.1593 28.5C44.7065 28.5 41.0968 32.1937 41.0968 36.75V47.75C41.0968 52.3063 44.7065 56 49.1593 56H51.8468C56.2995 56 59.9094 52.3063 59.9094 47.75V36.75C59.9094 32.1937 56.2995 28.5 51.8468 28.5H49.1593ZM48.4874 64.8242V70.4375V72.5H52.5187V70.4375V64.8242C60.0698 63.9703 66.2207 58.3746 68.0721 51.0141L68.5744 49.0167L64.6705 47.9885L64.168 49.9859C62.6017 56.2134 57.0746 60.8125 50.5031 60.8125C43.9314 60.8125 38.4045 56.2134 36.8381 49.9859L36.3357 47.9885L32.4316 49.0167L32.9341 51.0141C34.7855 58.3746 40.9364 63.9703 48.4874 64.8242Z" fill="white"/>
</svg>
