<svg width="18" height="18" viewBox="0 0 18 18" fill="none" xmlns="http://www.w3.org/2000/svg">
<path fill-rule="evenodd" clip-rule="evenodd" d="M4.47822 11.8662L3.6875 11.6562H2.09375V6.34375H3.6875L4.47822 6.13376L9.53125 3.24632V14.7537L4.47822 11.8662ZM3.6875 4.75L9.53125 1.41071L11.125 0.5V2.33561V15.6644V17.5L9.53125 16.5893L3.6875 13.25H1.5625C0.975697 13.25 0.5 12.7743 0.5 12.1875V5.8125C0.5 5.2257 0.975697 4.75 1.5625 4.75H3.6875ZM15.6497 3.64554L16.0899 4.30977C16.9811 5.65441 17.5 7.26781 17.5 9C17.5 10.7322 16.9811 12.3456 16.0899 13.6902L15.6497 14.3545L14.3212 13.474L14.7614 12.8098C15.4849 11.7181 15.9062 10.4095 15.9062 9C15.9062 7.59052 15.4849 6.28187 14.7614 5.19023L14.3212 4.52598L15.6497 3.64554ZM13.3127 5.79663L13.6883 6.49946C14.0868 7.2455 14.3125 8.09759 14.3125 9C14.3125 9.90241 14.0868 10.7545 13.6883 11.5005L13.3127 12.2033L11.907 11.4524L12.2826 10.7495C12.5608 10.2289 12.7188 9.63406 12.7188 9C12.7188 8.36594 12.5608 7.77115 12.2826 7.25054L11.907 6.5477L13.3127 5.79663Z" fill="#635BFF"/>
</svg>
