<svg width="23" height="22" viewBox="0 0 23 22" fill="none" xmlns="http://www.w3.org/2000/svg">
<path d="M9.3 0H13.7C16.0339 0 18.2722 0.950913 19.9225 2.64355C21.5729 4.33619 22.5 6.63189 22.5 9.02564C22.5 11.4194 21.5729 13.7151 19.9225 15.4077C18.2722 17.1004 16.0339 18.0513 13.7 18.0513V22C8.2 19.7436 0.5 16.359 0.5 9.02564C0.5 6.63189 1.42714 4.33619 3.07746 2.64355C4.72778 0.950913 6.96609 0 9.3 0ZM11.5 15.7949H13.7C15.4504 15.7949 17.1292 15.0817 18.3669 13.8122C19.6046 12.5427 20.3 10.821 20.3 9.02564C20.3 7.23033 19.6046 5.50855 18.3669 4.23907C17.1292 2.9696 15.4504 2.25641 13.7 2.25641H9.3C7.54957 2.25641 5.87084 2.9696 4.6331 4.23907C3.39536 5.50855 2.7 7.23033 2.7 9.02564C2.7 13.0985 5.4082 15.7565 11.5 18.5928V15.7949Z" fill="#635BFF"/>
</svg>
