<svg width="23" height="22" viewBox="0 0 23 22" fill="none" xmlns="http://www.w3.org/2000/svg">
<path fill-rule="evenodd" clip-rule="evenodd" d="M17.6879 9.02061L11.5004 2.83311L5.3129 9.02061V18.5623H8.7504V15.1248C8.7504 13.6059 9.98162 12.3747 11.5004 12.3747C13.0192 12.3747 14.2504 13.6059 14.2504 15.1248V18.5623H17.6879V9.02061ZM19.4479 7.86383L12.4727 0.888568C11.9357 0.351599 11.0651 0.351595 10.5281 0.888568L3.55271 7.86399C3.55253 7.86416 3.55288 7.86382 3.55271 7.86399L1.1462 10.2705L0.416992 10.9997L1.8754 12.4581L2.60461 11.7289L3.2504 11.0831V19.5935V20.6248H4.28165H8.7504H10.8129H12.1879H14.2504H18.7191H19.7504V19.5935V11.0831L20.3962 11.7289L21.1254 12.4581L22.5839 10.9997L21.8546 10.2705L19.4479 7.86383C19.4482 7.86411 19.4476 7.86356 19.4479 7.86383ZM12.1879 15.1248V18.5623H10.8129V15.1248C10.8129 14.745 11.1207 14.4373 11.5004 14.4373C11.8801 14.4373 12.1879 14.745 12.1879 15.1248Z" fill="#6B7280"/>
</svg>
