<svg width="23" height="22" viewBox="0 0 23 22" fill="none" xmlns="http://www.w3.org/2000/svg">
<path fill-rule="evenodd" clip-rule="evenodd" d="M2.93094 10.3125L6.02469 4.125H17.2252L20.319 10.3125H14.375H13.3438V11.3438C13.3438 12.293 12.5742 13.0625 11.625 13.0625C10.6758 13.0625 9.90625 12.293 9.90625 11.3438V10.3125H8.875H2.93094ZM2.6875 12.375V16.5C2.6875 17.2594 3.30311 17.875 4.0625 17.875H19.1875C19.9469 17.875 20.5625 17.2594 20.5625 16.5V12.375H15.2639C14.815 13.9622 13.3558 15.125 11.625 15.125C9.89418 15.125 8.43497 13.9622 7.98609 12.375H2.6875ZM4.75 2.0625H18.5L22.4798 10.0222C22.5754 10.2131 22.625 10.4236 22.625 10.6371V16.5C22.625 18.3985 21.086 19.9375 19.1875 19.9375H4.0625C2.16402 19.9375 0.625 18.3985 0.625 16.5V10.6371C0.625 10.4236 0.6747 10.2131 0.770163 10.0222L4.75 2.0625Z" fill="#635BFF"/>
</svg>
