<svg width="23" height="22" viewBox="0 0 23 22" fill="none" xmlns="http://www.w3.org/2000/svg">
<path d="M19.1875 6.875C21.086 6.875 22.625 5.33598 22.625 3.4375C22.625 1.53902 21.086 0 19.1875 0C17.289 0 15.75 1.53902 15.75 3.4375C15.75 5.33598 17.289 6.875 19.1875 6.875Z" fill="#635BFF"/>
<path fill-rule="evenodd" clip-rule="evenodd" d="M21.6476 8.35792L22.4798 10.0222C22.5754 10.2131 22.625 10.4236 22.625 10.6371V16.5C22.625 18.3985 21.086 19.9375 19.1875 19.9375H4.0625C2.16402 19.9375 0.625 18.3985 0.625 16.5V10.6371C0.625 10.4236 0.6747 10.2131 0.770163 10.0222L4.75 2.0625H13.8608C13.7477 2.50198 13.6875 2.96271 13.6875 3.4375C13.6875 3.67033 13.702 3.89978 13.7301 4.125H6.02469L2.93094 10.3125H8.875H9.90625V11.3438C9.90625 12.293 10.6758 13.0625 11.625 13.0625C12.5742 13.0625 13.3438 12.293 13.3438 11.3438V10.3125H14.375H20.319L19.6231 8.92051C20.3462 8.86384 21.0301 8.66731 21.6476 8.35792ZM2.6875 16.5V12.375H7.98609C8.43497 13.9622 9.89418 15.125 11.625 15.125C13.3558 15.125 14.815 13.9622 15.2639 12.375H20.5625V16.5C20.5625 17.2594 19.9469 17.875 19.1875 17.875H4.0625C3.30311 17.875 2.6875 17.2594 2.6875 16.5Z" fill="#6B7280"/>
</svg>
