<svg width="61" height="62" viewBox="0 0 61 62" fill="none" xmlns="http://www.w3.org/2000/svg">
<rect x="1" y="1" width="59" height="60" rx="29.5" fill="#635BFF"/>
<rect x="1" y="1" width="59" height="60" rx="29.5" stroke="white" stroke-width="2"/>
<path d="M33.3191 37.371L32.5399 39.5939C32.4788 39.762 32.3719 39.8995 32.2191 40.0064C32.0663 40.1134 31.8982 40.1668 31.7149 40.1668C31.4094 40.1668 31.1612 40.0406 30.9706 39.7882C30.7799 39.5359 30.7454 39.2572 30.867 38.9522L34.3503 29.7397C34.4267 29.5717 34.5413 29.4342 34.6941 29.3272C34.8469 29.2203 35.0149 29.1668 35.1982 29.1668H35.8857C36.0691 29.1668 36.2371 29.2203 36.3899 29.3272C36.5427 29.4342 36.6573 29.5717 36.7337 29.7397L40.217 38.9752C40.3392 39.2654 40.3087 39.5368 40.1253 39.7892C39.942 40.0416 39.6976 40.1674 39.392 40.1668C39.1934 40.1668 39.0217 40.1134 38.8768 40.0064C38.732 39.8995 38.6211 39.7543 38.5441 39.571L37.7649 37.371H33.3191ZM27.7962 32.8106L23.8087 36.7752C23.6406 36.9432 23.4307 37.0312 23.1789 37.0392C22.9271 37.0471 22.7093 36.9591 22.5253 36.7752C22.3573 36.6071 22.2732 36.3932 22.2732 36.1335C22.2732 35.8738 22.3573 35.6599 22.5253 35.4918L26.5128 31.5043C25.9781 30.9696 25.4929 30.3585 25.0572 29.671C24.6214 28.9835 24.2206 28.2043 23.8545 27.3335H25.7795C26.0851 27.9293 26.3906 28.4488 26.6962 28.8918C27.0017 29.3349 27.3684 29.7779 27.7962 30.221C28.3003 29.7168 28.8237 29.0101 29.3664 28.1007C29.9091 27.1914 30.3176 26.3246 30.592 25.5002H21.3337C21.0739 25.5002 20.8564 25.4122 20.681 25.2362C20.5056 25.0602 20.4176 24.8426 20.417 24.5835C20.4164 24.3244 20.5044 24.1068 20.681 23.9308C20.8576 23.7548 21.0752 23.6668 21.3337 23.6668H26.8337V22.7502C26.8337 22.4904 26.9217 22.2729 27.0977 22.0975C27.2737 21.9221 27.4912 21.8341 27.7503 21.8335C28.0094 21.8329 28.2273 21.9209 28.4039 22.0975C28.5805 22.2741 28.6682 22.4917 28.667 22.7502V23.6668H34.167C34.4267 23.6668 34.6446 23.7548 34.8206 23.9308C34.9966 24.1068 35.0843 24.3244 35.0837 24.5835C35.0831 24.8426 34.9951 25.0605 34.8197 25.2371C34.6443 25.4137 34.4267 25.5014 34.167 25.5002H32.4253C32.1045 26.6002 31.6232 27.7307 30.9816 28.8918C30.3399 30.0529 29.7059 30.9391 29.0795 31.5502L31.2795 33.796L30.592 35.6752L27.7962 32.8106ZM33.892 35.7668H37.192L35.542 31.0918L33.892 35.7668Z" fill="white"/>
</svg>
