<svg width="23" height="22" viewBox="0 0 23 22" fill="none" xmlns="http://www.w3.org/2000/svg">
<path d="M14.3181 17.371L13.5389 19.5939C13.4778 19.762 13.3709 19.8995 13.2181 20.0064C13.0653 20.1134 12.8973 20.1668 12.7139 20.1668C12.4084 20.1668 12.1603 20.0406 11.9696 19.7882C11.7789 19.5359 11.7444 19.2572 11.866 18.9522L15.3494 9.73975C15.4257 9.57169 15.5403 9.43419 15.6931 9.32725C15.8459 9.2203 16.0139 9.16683 16.1973 9.16683H16.8848C17.0681 9.16683 17.2362 9.2203 17.3889 9.32725C17.5417 9.43419 17.6563 9.57169 17.7327 9.73975L21.216 18.9752C21.3382 19.2654 21.3077 19.5368 21.1244 19.7892C20.941 20.0416 20.6966 20.1674 20.391 20.1668C20.1924 20.1668 20.0207 20.1134 19.8759 20.0064C19.731 19.8995 19.6201 19.7543 19.5431 19.571L18.7639 17.371H14.3181ZM8.79519 12.8106L4.80769 16.7752C4.63963 16.9432 4.42971 17.0312 4.17794 17.0392C3.92616 17.0471 3.7083 16.9591 3.52435 16.7752C3.3563 16.6071 3.27227 16.3932 3.27227 16.1335C3.27227 15.8738 3.3563 15.6599 3.52435 15.4918L7.51185 11.5043C6.97713 10.9696 6.49191 10.3585 6.05618 9.671C5.62046 8.9835 5.21957 8.20433 4.85352 7.3335H6.77852C7.08407 7.92933 7.38963 8.44878 7.69519 8.89183C8.00074 9.33489 8.36741 9.77794 8.79519 10.221C9.29935 9.71683 9.82277 9.01008 10.3654 8.10075C10.9081 7.19142 11.3166 6.32455 11.591 5.50017H2.33269C2.07296 5.50017 1.85541 5.41217 1.68002 5.23617C1.50463 5.06017 1.41663 4.84261 1.41602 4.5835C1.41541 4.32439 1.50341 4.10683 1.68002 3.93083C1.85663 3.75483 2.07419 3.66683 2.33269 3.66683H7.83268V2.75017C7.83268 2.49044 7.92069 2.27289 8.09668 2.0975C8.27269 1.92211 8.49024 1.83411 8.74935 1.8335C9.00846 1.83289 9.22632 1.92089 9.40294 2.0975C9.57955 2.27411 9.66724 2.49167 9.66602 2.75017V3.66683H15.166C15.4257 3.66683 15.6436 3.75483 15.8196 3.93083C15.9956 4.10683 16.0833 4.32439 16.0827 4.5835C16.0821 4.84261 15.9941 5.06047 15.8187 5.23708C15.6433 5.41369 15.4257 5.50139 15.166 5.50017H13.4244C13.1035 6.60017 12.6223 7.73072 11.9806 8.89183C11.3389 10.0529 10.7049 10.9391 10.0785 11.5502L12.2785 13.796L11.591 15.6752L8.79519 12.8106ZM14.891 15.7668H18.191L16.541 11.0918L14.891 15.7668Z" fill="white"/>
</svg>
